# xmcd CD database file
#
# Track frame offsets:
#	150
#	22305
#	34704
#	50560
#	63201
#	77400
#	91085
#	106979
#	119997
#	138095
#	150865
#	164482
#	181743
#	196021
#	215249
#	225070
#
# Disc length: 3321 seconds
#
# Revision: 0
# Processed by: cddbd v1.5.1PL0 Copyright (c) Steve Scherf et al.
# Submitted via: NeoAudio 9.9.9
#
DISCID=c60cf710
DTITLE=The Poor People Of Paris - Elle Se Souvient
DYEAR=1997
DGENRE=Jazz
TTITLE0=J'ai Danse Avec L'amour
TTITLE1=Le Temps
TTITLE2=La Vieille
TTITLE3=La Foule
TTITLE4=Un Homme Et Une Femme
TTITLE5=Jimmy, C'est Lui
TTITLE6=Pardonne-Moi Ce Caprice D'Enfant
TTITLE7=La Vie En Rose
TTITLE8=Venus Des Abribus
TTITLE9=Fais-Moi Valser
TTITLE10=Sous Le Ciel De Paris
TTITLE11=Les parapluies De Cherbourg
TTITLE12=Elle Se Souvient
TTITLE13=La Boheme
TTITLE14=Les Flons-Flons Du Bal
TTITLE15=L'Annee Ou Piccoli Jouait Les Choses De La Vie
EXTD=YEAR: 1997
EXTT0=
EXTT1=
EXTT2=
EXTT3=
EXTT4=
EXTT5=
EXTT6=
EXTT7=
EXTT8=
EXTT9=
EXTT10=
EXTT11=
EXTT12=
EXTT13=
EXTT14=
EXTT15=
PLAYORDER=
